<svg width="152" height="152" fill="none" xmlns="http://www.w3.org/2000/svg"><path fill="#E84D37" d="M0 0h152v152H0z"/><path d="M76.12 24.7c4.13 0 8.19 1.07 11.77 3.09a23.33 23.33 0 0 1 8.63 8.41 22.69 22.69 0 0 1 .06 23.03c1.43.2 2.76.79 3.87 1.69a7.41 7.41 0 0 1 .51 11.18 7.79 7.79 0 0 1-7.92 1.82 7.75 7.75 0 0 1-3.5-2.33 7.5 7.5 0 0 1-1.72-3.78l-.89.47a10.66 10.66 0 0 1-3.71 6.44 11.1 11.1 0 0 1-14.2 0 10.66 10.66 0 0 1-3.7-6.44l-.9-.47a7.5 7.5 0 0 1-1.72 3.78 7.9 7.9 0 0 1-11.43.5 7.53 7.53 0 0 1-1.85-7.76 7.57 7.57 0 0 1 2.4-3.42 7.83 7.83 0 0 1 3.87-1.68 22.69 22.69 0 0 1 .06-23.02c2.07-3.5 5.04-6.4 8.61-8.41a23.97 23.97 0 0 1 11.76-3.1Zm0-5.7c-4.63 0-9.19 1.06-13.32 3.11a29.24 29.24 0 0 0-10.43 8.68 28.18 28.18 0 0 0-4.27 25.73 13.05 13.05 0 0 0-2.51 18.17 13.59 13.59 0 0 0 8.55 5.25c3.43.6 6.97-.1 9.88-1.99a17.17 17.17 0 0 0 24.27 0 13.8 13.8 0 0 0 9.77 1.76 13.59 13.59 0 0 0 8.37-5.24 13.05 13.05 0 0 0-2.29-17.95 28.18 28.18 0 0 0-4.27-25.73 29.24 29.24 0 0 0-10.43-8.68A29.92 29.92 0 0 0 76.12 19Z" fill="#fff"/><path d="M95.48 83.28c-2.3 0-4.56-.47-6.67-1.37-.3.24-.63.46-.95.7l.44.42-3.25 3.18-1.4-1.36c-.57.22-1.15.41-1.75.58l1.96 1.93-3.24 3.18-3.26-3.18 1.29-1.27a19.74 19.74 0 0 1-4.93 0l1.29 1.27-3.25 3.18-3.26-3.18 1.95-1.91a18.3 18.3 0 0 1-1.75-.59l-1.4 1.35-3.28-3.18.41-.4c-.34-.24-.68-.47-1-.72-2.1.9-4.37 1.36-6.67 1.37h-.5c-.06.44-.02.9.14 1.32l16.98 46.59.07.16.08.17.2.32.07.1c.1.14.21.27.34.38l.08.07.33.24.15.09c.11.06.23.11.36.16h.09l.33.08h.13c.31.05.63.05.94 0h.14l.32-.08h.15l.35-.16.15-.1c.11-.06.22-.14.32-.23l.1-.07c.11-.11.23-.24.33-.37l.07-.1c.08-.11.14-.22.2-.33l.15-.33 17.02-46.61c.15-.43.2-.88.13-1.33-.16 0-.29.03-.5.03ZM83.81 96.03l-3.25 3.18-3.2-3.18 3.24-3.18 3.21 3.18Zm-10.9 4.33 3.25-3.18 3.25 3.18-3.25 3.18-3.25-3.18Zm6.5 8.67-3.25 3.18-3.25-3.18 3.25-3.18 3.25 3.18Zm-3.25-20.51 3.25 3.18-3.25 3.15-3.25-3.18 3.25-3.15Zm-1.18 7.5-3.25 3.19-3.25-3.18 3.25-3.18 3.25 3.18ZM62.55 84.5l.32-.3 3.25 3.17-1.86 1.78-1.7-4.65Zm2.3 6.4 2.42-2.37 3.24 3.18-3.2 3.15-1.5-1.46-.96-2.5Zm2.36 6.41.1-.09 3.24 3.18-1.63 1.63-1.7-4.72Zm3.48 9.58-1.19-3.26 2.2-2.14 3.25 3.19-3.22 3.23-1.04-1.02Zm2.86 7.85-1.56-4.26 2.96 2.89-1.4 1.37Zm2.54 6.98-1.93-5.28 1.96-1.92 1.91 1.87-1.94 5.33Zm2.57-7.03-1.3-1.32 2.84-2.79-1.54 4.11Zm2.86-7.69-.94.91-3.22-3.21 3.24-3.17 2.14 2.09-1.22 3.38Zm1.85-5.08-1.57-1.55 3.25-3.18v.04l-1.68 4.69Zm3.06-8.4-1.42 1.34-3.25-3.18 3.25-3.18 2.35 2.34-.93 2.69ZM88 89.15l-1.81-1.77 3.25-3.19.27.27-1.71 4.7Z" fill="#fff"/></svg>