<svg width="16" height="16" viewBox="0 0 16 16" fill="none" xmlns="http://www.w3.org/2000/svg">
<path fill-rule="evenodd" clip-rule="evenodd" d="M8.00194 1.33333C8.00116 1.33334 8.00037 1.33334 7.99958 1.33334C4.31791 1.33334 1.33333 4.31792 1.33333 7.99958C1.33333 11.6806 4.31686 14.6648 7.99763 14.6658C7.99842 14.6658 7.99921 14.6658 8 14.6658C11.6817 14.6658 14.6662 11.6812 14.6662 7.99957C14.6662 4.31856 11.6827 1.33439 8.00194 1.33333ZM8.00194 15.9991C8.00116 15.9991 8.00037 15.9992 7.99958 15.9992C3.58153 15.9992 0 12.4176 0 7.99958C0 3.58251 3.57996 0.00158592 7.99666 8.18445e-06C7.99777 2.73026e-06 7.99888 0 8 0C12.418 0 15.9996 3.58153 15.9996 7.99957C15.9996 12.417 12.4191 15.9981 8.00194 15.9991Z" fill="#2D3440"/>
</svg>
