<svg width="28" height="28" viewBox="0 0 28 28" fill="none" xmlns="http://www.w3.org/2000/svg">
<path d="M16.0037 13.7913L13.1963 12.4813C12.9513 12.3675 12.75 12.495 12.75 12.7662V15.2338C12.75 15.505 12.9513 15.6325 13.1963 15.5188L16.0025 14.2087C16.2488 14.0938 16.2487 13.9063 16.0037 13.7913ZM14 2C7.3725 2 2 7.3725 2 14C2 20.6275 7.3725 26 14 26C20.6275 26 26 20.6275 26 14C26 7.3725 20.6275 2 14 2ZM14 18.875C7.8575 18.875 7.75 18.3213 7.75 14C7.75 9.67875 7.8575 9.125 14 9.125C20.1425 9.125 20.25 9.67875 20.25 14C20.25 18.3213 20.1425 18.875 14 18.875Z" fill="#FCFCFC"/>
<path d="M14 24C8.47715 24 4 19.5228 4 14H0C0 21.732 6.26801 28 14 28V24ZM24 14C24 19.5228 19.5228 24 14 24V28C21.732 28 28 21.732 28 14H24ZM14 4C19.5228 4 24 8.47715 24 14H28C28 6.26801 21.732 0 14 0V4ZM14 0C6.26801 0 0 6.26801 0 14H4C4 8.47715 8.47715 4 14 4V0Z" fill="#FCFCFC" fill-opacity="0.3"/>
</svg>
